<?xml version="1.0" encoding="utf-8"?>
<!-- Generator: Adobe Illustrator 22.1.0, SVG Export Plug-In . SVG Version: 6.00 Build 0)  -->
<svg version="1.1" id="Layer_1" xmlns="http://www.w3.org/2000/svg" xmlns:xlink="http://www.w3.org/1999/xlink" x="0px" y="0px"
	 viewBox="0 0 633.1 170" style="enable-background:new 0 0 633.1 170;" xml:space="preserve">
<style type="text/css">
	.st0{fill:#0067A4;}
</style>
<g>
	<path class="st0" d="M110.8,56.1c-2.1-11.2-12.2-10-20.3-10v36.3c14.1,1.4,21-5.5,21-19.3C111.5,60.9,111.3,59,110.8,56.1z"/>
	<polygon class="st0" points="198.7,106 215,106 207.1,84.3 	"/>
	<path class="st0" d="M0,0v169.6h632V0H0z M128,130.9c-4.1,0-8.1,0.5-11.9,0.7l-16-28.4c-1.9-3.6-5.7-9.8-8.6-15h-1v43.2
		c-3.3-0.2-6.7-0.7-10-0.7c-3.3,0-6.7,0.5-10,0.7V38.7h28.4c6.2,0,16-0.2,21.7,2.6c7.6,4.1,11.7,10,11.7,19.3
		c0,13.1-8.4,21.7-20.8,24.4c7.4,12.9,15.5,25.3,23.6,38l5.3,8.4C136.1,131.1,132.3,130.9,128,130.9z M231.2,130.9
		c-2.6,0-5,0.2-7.6,0.5c-2.1-6.9-4.1-13.4-6.4-19.6h-21c-2.4,7.2-4.5,12.9-6.2,19.3c-1.4,0-2.9-0.2-4.3-0.2c-1.4,0-2.9,0.2-4.3,0.2
		l25.8-65c1.2,0.2,2.1,0.2,3.3,0.2s2.1,0,3.3-0.2l25.1,65.2C236.2,131.4,233.8,130.9,231.2,130.9z M316.7,131.4
		c-1.2-0.2-2.6-0.5-3.8-0.5c-1.4,0-2.6,0.2-3.8,0.5c-7.6-22-15.5-43-24.1-64.5c2.6,0.2,5.3,0.5,7.9,0.5c2.6,0,5.3-0.2,7.9-0.5
		c4.3,15.5,10.5,30.8,16,46.6c6.2-15.3,11.9-30.8,16.7-46.6c1.4,0.2,2.9,0.2,4.1,0.2c1.4,0,2.9,0,4.1-0.2
		C333.2,88.4,324.4,109.4,316.7,131.4z M433.8,75.2c-5.5-0.7-11.7-1.4-20.8-1.2v20.1h9.3c4.1,0,7.6-0.5,11-1
		c-0.2,1.2-0.5,2.6-0.5,4.1s0.2,2.6,0.5,4.1c-3.3-0.5-6.9-1-11-1H413v23.9c9.1,0,15.3-0.5,20.8-1.4c-0.2,1.4-0.5,2.6-0.5,4.1
		s0.2,2.6,0.5,4.1h-34.2V67.1h34.2c-0.2,1.4-0.5,2.6-0.5,4.1C433.3,72.4,433.5,73.8,433.8,75.2z M556.8,131.4h-7.6
		c-10.5-12.2-20.1-23.6-30.3-34.9L509,85.7v45.4c-1.2,0-2.4-0.2-3.6-0.2c-1.2,0-2.4,0.2-3.6,0.2v-64h8.8
		c12.7,14.6,26,28.9,38.7,43.9V67.1c1.2,0.2,2.4,0.2,3.6,0.2c1.2,0,2.4,0,3.6-0.2v64.3H556.8z"/>
</g>
</svg>
