<?xml version="1.0" encoding="utf-8"?>
<!-- Generator: Adobe Illustrator 22.1.0, SVG Export Plug-In . SVG Version: 6.00 Build 0)  -->
<svg version="1.1" id="Layer_1" xmlns="http://www.w3.org/2000/svg" xmlns:xlink="http://www.w3.org/1999/xlink" x="0px" y="0px"
	 viewBox="0 0 184.3 46.2" style="enable-background:new 0 0 184.3 46.2;" xml:space="preserve">
<style type="text/css">
	.st0{fill:#656666;}
	.st1{fill:#004E77;}
</style>
<g>
	<polygon class="st0" points="39.7,0 39.1,0 35.6,0 28.2,34.4 23.9,6.6 19.7,6.6 14.7,25.3 0,25.3 0,29.5 16.3,29.5 18.3,28 
		21.3,16.9 25.8,46 29.9,46 36.9,13.4 39,32.9 41,34.8 47.8,34.8 47.8,30.7 42.9,30.7 	"/>
	<path class="st0" d="M57,18.4c-2.7,0-4.5,0.5-6.2,1.3l1.1,3.5c1.5-0.5,2.7-0.9,4.4-0.9c2.3,0,3.5,1.1,3.5,2.9v0.3
		c-1.1-0.4-2.3-0.7-3.9-0.7c-3.8,0-6.5,1.6-6.5,5.1V30c0,3.2,2.5,4.9,5.5,4.9c2.2,0,3.8-0.8,4.9-2v1.7h4.4v-9.3
		c0-2.2-0.5-3.9-1.7-5.1C61.3,19.1,59.5,18.4,57,18.4 M59.9,29c0,1.7-1.4,2.8-3.6,2.8c-1.5,0-2.5-0.7-2.5-2v-0.1
		c0-1.4,1.2-2.2,3.2-2.2c1.1,0,2.1,0.2,2.9,0.6V29z"/>
	<path class="st0" d="M71.4,21.8v-3.2h-4.6v16.1h4.6v-5.9c0-3.8,1.9-5.7,4.9-5.7h0.2v-4.8C73.8,18.2,72.3,19.6,71.4,21.8"/>
	<polygon class="st0" points="93.5,18.6 88,18.6 82.6,24.4 82.6,12.8 78.1,12.8 78.1,34.7 82.6,34.7 82.6,29.8 84.2,28.1 88.4,34.7 
		93.7,34.7 87.3,24.9 	"/>
	<path class="st0" d="M101,18.3c-4.7,0-8,3.8-8,8.4v0.1c0,4.9,3.6,8.3,8.4,8.3c2.9,0,5.1-1.1,6.6-3l-2.6-2.3
		c-1.3,1.2-2.4,1.7-3.9,1.7c-2,0-3.5-1.1-3.9-3.2h11.2c0-0.4,0.1-0.8,0.1-1.2C108.8,22.4,106.3,18.3,101,18.3 M97.5,25.4
		c0.4-2.1,1.6-3.4,3.5-3.4c1.9,0,3.1,1.4,3.4,3.4H97.5z"/>
	<path class="st0" d="M116.2,14.5h-4.6v4.1h-1.9v3.9h1.9v7.6c0,3.7,1.9,4.8,4.7,4.8c1.5,0,2.6-0.4,3.6-0.9v-3.7
		c-0.7,0.4-1.4,0.6-2.3,0.6c-1,0-1.5-0.5-1.5-1.6v-6.9h3.8v-3.9h-3.8V14.5z"/>
	<path class="st1" d="M136.4,23.7c1.5-0.8,2.8-2.2,2.8-4.5v-0.1c0-1.4-0.5-2.6-1.4-3.6c-1.2-1.2-3.1-1.9-5.5-1.9h-9.8v21h10
		c4.7,0,7.9-1.9,7.9-5.8v-0.1C140.4,26,138.9,24.6,136.4,23.7 M127,17.7h4.6c2,0,3,0.8,3,2.2v0.1c0,1.6-1.3,2.2-3.3,2.2H127V17.7z
		 M135.8,28.3c0,1.6-1.2,2.3-3.3,2.3H127V26h5.3C134.7,26,135.8,26.9,135.8,28.3L135.8,28.3z"/>
	<path class="st1" d="M149.6,18.3c-4.7,0-8,3.8-8,8.4v0.1c0,4.9,3.6,8.3,8.4,8.3c2.9,0,5.1-1.1,6.6-3l-2.6-2.3
		c-1.3,1.2-2.4,1.7-3.9,1.7c-2,0-3.5-1.1-3.9-3.2h11.2c0-0.4,0.1-0.8,0.1-1.2C157.4,22.4,155,18.3,149.6,18.3 M146.1,25.4
		c0.4-2.1,1.6-3.4,3.5-3.4c1.9,0,3.1,1.4,3.4,3.4H146.1z"/>
	<path class="st1" d="M166.2,18.4c-2.7,0-4.5,0.5-6.2,1.3l1.1,3.5c1.5-0.5,2.7-0.9,4.4-0.9c2.3,0,3.5,1.1,3.5,2.9v0.3
		c-1.1-0.4-2.3-0.7-3.9-0.7c-3.8,0-6.5,1.6-6.5,5.1V30c0,3.2,2.5,4.9,5.5,4.9c2.2,0,3.8-0.8,4.9-2v1.7h4.4v-9.3
		c0-2.2-0.5-3.9-1.7-5.1C170.5,19.1,168.6,18.4,166.2,18.4 M169,29c0,1.7-1.4,2.8-3.6,2.8c-1.5,0-2.5-0.7-2.5-2v-0.1
		c0-1.4,1.2-2.2,3.2-2.2c1.1,0,2.1,0.2,2.9,0.6V29z"/>
	<path class="st1" d="M184.9,22.5v-3.9h-3.8v-4.1h-4.6v4.1h-1.9v3.9h1.9v7.6c0,3.7,1.9,4.8,4.7,4.8c1.5,0,2.6-0.4,3.6-0.9v-3.7
		c-0.7,0.4-1.4,0.6-2.3,0.6c-1,0-1.5-0.5-1.5-1.6v-6.9H184.9z"/>
</g>
</svg>
