<?xml version="1.0" encoding="utf-8"?>
<!-- Generator: Adobe Illustrator 22.1.0, SVG Export Plug-In . SVG Version: 6.00 Build 0)  -->
<svg version="1.1" id="Layer_1" xmlns="http://www.w3.org/2000/svg" xmlns:xlink="http://www.w3.org/1999/xlink" x="0px" y="0px"
	 viewBox="0 0 103 48.8" style="enable-background:new 0 0 103 48.8;" xml:space="preserve">
<style type="text/css">
	.st0{fill:#0079C1;}
</style>
<g>
	<g>
		<path class="st0" d="M23.3,12.8c0,0-0.8-11.5,6.1-11.9c6.9-0.5,12.6,9.4,13.8,12.2c1.3,3.1,6.1,17.7-1.3,22.8
			c-0.5,0.4-4.8,2.6-10.6-3.5c0,0,4.8,4.5,9.3,1.3c3.8-2.6,4.4-10.9,1.6-17.9C39.1,7.9,34.7,3,28.4,3.9C25.6,4.3,24.1,6.7,23.3,12.8
			"/>
		<path class="st0" d="M16.5,14.5c0,0-1-13.7,7.3-14.3c8.3-0.5,15.1,11.2,16.5,14.6c1.6,3.7,7.3,21.2-1.6,27.2
			c-0.6,0.4-5.7,3.2-12.7-4.2c0,0,5.7,5.3,11.1,1.6c4.6-3.1,5.2-13.1,1.9-21.4C35.4,8.6,30.2,2.8,22.7,3.8
			C19.3,4.3,17.5,7.1,16.5,14.5"/>
		<path class="st0" d="M10.2,16.1c0,0-1.1-15.5,8.2-16.1s17,12.7,18.7,16.5c1.8,4.2,8.2,23.9-1.8,30.7c-0.7,0.5-6.4,3.6-14.3-4.8
			c0,0,6.4,6,12.6,1.8c5.1-3.6,5.9-14.8,2.2-24.2C31.5,9.4,25.6,2.9,17.2,4.1C13.3,4.6,11.3,7.8,10.2,16.1"/>
	</g>
	<g>
		<path d="M5.1,30.3c-0.6-0.1-0.9-0.4-1.2-0.8c-0.3-0.4-0.6-0.8-0.6-1.3c-0.1-0.9,0.1-2.3,0.7-3c0.7-0.8,1.2-0.9,1.6-1
			C6.1,24,6.8,24,7.2,24.1c0.4,0.1,0.9,0.2,1.4,0.8l0.7-2.4c0,0-0.3-0.4-1.1-0.7c-1-0.4-1.8-0.4-3.2-0.3c-1.6,0.1-2.7,0.8-3.6,2
			C0.5,24.7,0,26.1,0,27.7c0,1.4,0.5,3,1.2,3.8c0.7,0.8,1.5,1.1,2.4,1.2c1.1,0.1,2.4,0,2.9-0.2c0.6-0.3,0.9-0.7,0.9-0.6L8,29.5
			C7.9,30.1,6.1,30.6,5.1,30.3 M15,32.6h3l2.4-10.9h-3l-0.9,4H13l0.9-4h-3L8.6,32.6h3l1-4.6H16L15,32.6z M29.8,24.7
			c0-0.9-0.3-1.6-0.9-2.2c-0.6-0.5-1.5-0.8-2.7-0.8l-4.3,0l-2,10.8h2.8l1-4.4h0.6l1.2,4.4h3l-0.9-4.9C29.1,27.2,29.8,26.3,29.8,24.7
			L29.8,24.7z M24.7,24.1h0.5c0.9,0,1.4,0.3,1.4,0.9c0,0.7-0.5,1.1-1.6,1.1h-0.6L24.7,24.1z"/>
		<path d="M95.9,27.8c0.1-0.5,0.1-0.9,0.1-1.2c0-0.7-0.2-1.2-0.6-1.6c-0.4-0.4-1.2-0.4-1.9-0.4c-1.1,0-1.5,0.1-2.1,0.9v-0.6H90
			l-1.3,7.6h1.4l0.5-2.9c0.3-1.7,0.5-2.5,0.8-2.9c0.5-0.5,1.1-0.8,1.6-0.8c0.5,0,0.8,0.1,1.1,0.4c0.2,0.3,0.3,0.5,0.3,0.9
			c0,0.2,0,0.3-0.1,0.8l-0.7,4.6H95L95.9,27.8z"/>
		<path d="M84.6,32.8L84.6,32.8c-0.1,0-0.2,0-0.4,0c-1-0.1-1.7-0.5-2.2-1.3c-0.5-0.7-0.7-1.6-0.6-2.7c0.1-1.2,0.6-2.2,1.4-3.1
			c0.8-0.9,1.8-1.3,3-1.2c1,0.1,1.7,0.5,2.2,1.2c0.5,0.7,0.7,1.6,0.6,2.8c-0.1,1.2-0.6,2.2-1.4,3.1C86.5,32.4,85.6,32.8,84.6,32.8
			 M85.4,25.8c-0.6,0-1.2,0.3-1.6,0.9c-0.5,0.7-0.8,1.6-0.9,2.5c-0.1,0.7,0,1.2,0.3,1.6c0.3,0.4,0.6,0.6,1.2,0.6
			c0.7,0.1,1.3-0.2,1.8-0.9C86.7,29.9,87,29,87,28c0.1-0.7-0.1-1.3-0.3-1.6c-0.3-0.3-0.7-0.5-1.1-0.6C85.5,25.8,85.4,25.8,85.4,25.8
			"/>
		<path d="M55.9,22.7l-0.5,1.1c0,0-0.3-0.9-2.3-0.8c-1.6,0-2.1,0.6-2.1,1.6c-0.1,0.8,0.8,1.3,2.7,2.5c1.6,1.1,1.5,2.2,1.4,2.5
			c-0.1,0.4-0.8,3.2-3.9,3.2c-2.3,0-3.2-1.1-3.2-1.1l0.4-1.4c0,0,0.6,1.2,2.8,1.2c1.6,0,2.4-1.2,2.4-1.7c0-0.6,0-1.1-2.1-2.2
			c-2.1-1.1-2.1-2-2.2-2.7c-0.2-1.3,1.1-3,2.6-3.1C53.9,21.5,55.1,21.8,55.9,22.7"/>
		<path d="M98.7,32.6L98.7,32.6c-1.8,0-2.6-0.8-2.6-0.8l0,0l0.4-1.3l0.1,0.2c0,0,0.4,0.8,2.1,0.8c0.6,0,1.1-0.2,1.5-0.6
			c0.2-0.2,0.3-0.4,0.3-0.6l0,0c0-0.4,0-0.7-1.6-1.5c-1.6-0.8-1.7-1.4-1.7-1.9l0-0.1c-0.1-0.4,0.1-0.9,0.4-1.3
			c0.4-0.5,1.1-0.9,1.6-1c0.3,0,0.7-0.1,0.9-0.1c1,0,1.7,0.2,2.3,0.8l0,0l-0.5,1l-0.1-0.2c0,0-0.3-0.6-1.7-0.6
			c-1.4,0.1-1.5,0.6-1.5,1c-0.1,0.5,0.4,0.8,1.4,1.4c0.2,0.1,0.3,0.2,0.5,0.3c0.9,0.5,1.2,1.2,1.1,1.9
			C101.7,30.2,101.2,32.6,98.7,32.6"/>
		<path d="M59.1,32.8L59.1,32.8c-0.1,0-0.2,0-0.4,0c-1-0.1-1.7-0.5-2.3-1.3c-0.5-0.7-0.7-1.6-0.6-2.7c0.1-1.2,0.6-2.2,1.4-3.1
			c0.8-0.9,1.8-1.3,3-1.2c1,0.1,1.7,0.5,2.2,1.2c0.5,0.7,0.7,1.6,0.6,2.8c-0.1,1.2-0.6,2.2-1.4,3.1C61,32.4,60.1,32.8,59.1,32.8
			 M59.9,25.8c-0.6,0-1.2,0.3-1.6,0.9c-0.5,0.7-0.8,1.6-0.9,2.5c-0.1,0.7,0,1.2,0.3,1.6c0.3,0.4,0.6,0.6,1.2,0.6
			c0.7,0.1,1.3-0.2,1.8-0.9c0.5-0.7,0.8-1.6,0.9-2.6c0.1-0.7-0.1-1.3-0.3-1.6c-0.3-0.3-0.7-0.5-1.1-0.6C60,25.8,59.9,25.8,59.9,25.8
			"/>
		<polygon points="64.6,32.5 63.1,32.5 65.5,20.8 67.1,20.8 		"/>
		<path d="M68.4,32.7c-0.5,0-0.9-0.1-1.3-0.3c-0.4-0.2-0.6-0.5-0.8-0.8c-0.2-0.3-0.2-0.7-0.2-1.2c0-0.3,0.1-0.8,0.2-1.4l0.9-4.4h1.5
			l-1,4.8c-0.1,0.6-0.1,0.8-0.1,0.9c0,0.3,0.1,0.6,0.3,0.8c0.2,0.2,0.5,0.3,0.8,0.3c0.6,0,1.1-0.3,1.6-1c0.5-0.6,0.8-1.3,1.2-2.8
			l0.8-3h1.4L72,32.5h-1.4l0.2-1.1C70.2,32.3,69.4,32.7,68.4,32.7"/>
		<path d="M76.4,32.6c-1.7,0-2.1-1-2.1-1.8c0-0.3,0.1-0.8,0.2-1.6l0.9-3.4h-1.1l0.2-1.3h1.2l0.5-1.9l1.6-0.3l-0.6,2.2h1.7l-0.2,1.3
			h-1.7l-1,4c-0.1,0.5-0.1,0.8-0.1,0.9c0,0.3,0.1,0.7,0.8,0.7c0.2,0,0.6,0,1-0.1l0.2,0l-0.2,1.3h-0.2c0,0,0,0-0.1,0l-0.1,0
			C76.9,32.6,76.6,32.6,76.4,32.6"/>
		<path d="M79.7,32.6h-1.5l1.8-7.9h1.5L79.7,32.6z M80.3,22.9l0.3-1.7l1.9-0.1l-0.3,1.7L80.3,22.9z"/>
	</g>
</g>
</svg>
