<?xml version="1.0" encoding="utf-8"?>
<!-- Generator: Adobe Illustrator 22.1.0, SVG Export Plug-In . SVG Version: 6.00 Build 0)  -->
<svg version="1.1" id="Layer_1" xmlns="http://www.w3.org/2000/svg" xmlns:xlink="http://www.w3.org/1999/xlink" x="0px" y="0px"
	 viewBox="0 0 175 32" style="enable-background:new 0 0 175 32;" xml:space="preserve">
<style type="text/css">
	.st0{fill:#212121;}
</style>
<g>
	<path class="st0" d="M2.3,25.5v3H0.5V3.5h1.7v10.9c1.4-2,3.8-3.4,7-3.4c5.2,0,8.7,4.2,8.7,9c0,4.7-3.4,8.9-8.7,8.9
		C6.1,28.8,3.7,27.4,2.3,25.5z M16.1,19.9c0-4.2-3.1-7.4-7.2-7.4c-2.9,0-5.5,1.9-6.6,4.2v6.3c1.1,2.4,3.7,4.2,6.6,4.2
		C13,27.2,16.1,24,16.1,19.9z"/>
	<path class="st0" d="M31.8,24.8V3.5h1.7v21c0,1.8,0.9,2.7,2.5,2.7c0.7,0,1.2-0.2,1.8-0.5v1.7c-0.7,0.4-1.5,0.5-2.3,0.5
		C33.8,28.8,31.8,28,31.8,24.8z"/>
	<path class="st0" d="M49.5,19.9c0-5.1,3.5-9,8.5-9c5.9,0,7.9,5.2,7.9,8.7v0.6H51.2c0.1,4.2,3.3,7.1,7.8,7.1c2.2,0,4.1-0.6,5.5-1.6
		v1.7c-1.1,0.9-3.3,1.5-5.7,1.5C53.5,28.8,49.5,25.2,49.5,19.9z M64.1,18.7c0-2.4-1.6-6.1-6.2-6.1c-4.1,0-6.5,3.2-6.7,6.1H64.1z"/>
	<path class="st0" d="M79.8,28.4v-17h1.7v2.9c1.3-1.6,3.8-3.3,7.2-3.3c4.4,0,6.6,2.6,6.6,7.1v10.4h-1.7v-10c0-5-3.2-5.8-5.4-5.8
		c-2.7,0-5.5,2-6.7,3.9v11.9H79.8z"/>
	<path class="st0" d="M108.4,19.9c0-4.7,3.4-9,8.7-9c3.2,0,5.6,1.5,7,3.4V3.5h1.7v24.9h-1.7v-3c-1.4,2-3.8,3.4-7,3.4
		C111.9,28.8,108.4,24.6,108.4,19.9z M124.1,23.1v-6.3c-1.1-2.4-3.7-4.2-6.6-4.2c-4.1,0-7.2,3.2-7.2,7.4c0,4.1,3.1,7.3,7.2,7.3
		C120.3,27.2,122.9,25.5,124.1,23.1z"/>
	<g>
		<path class="st0" d="M158.1,26.7c-3.8,0-7.8-1.9-10.8-5.2c-2.5-2.6-4-5.9-4.4-9c-0.4-3.3,0.6-6.1,2.6-8c1.6-1.5,3.7-2.2,6.1-2.2
			c3.8,0,7.8,1.9,10.8,5.2c5.1,5.5,5.9,13.2,1.7,17.1C162.6,26,160.5,26.7,158.1,26.7z M151.6,3.8c-2,0-3.7,0.6-5,1.8
			c-1.7,1.6-2.5,4-2.2,6.7c0.3,2.9,1.7,5.8,3.9,8.1c2.7,2.9,6.4,4.7,9.7,4.7c2,0,3.7-0.6,5-1.8c3.6-3.3,2.8-10-1.8-14.9
			C158.6,5.5,154.9,3.8,151.6,3.8z"/>
		<path class="st0" d="M156.5,31.5c-2.2,0-4.3-0.6-6-1.8c-2.9-1.9-4.6-5.2-4.9-9.2c-0.2-3.9,1-8.1,3.4-11.7
			c3.4-5.1,8.8-8.3,13.9-8.3c2.2,0,4.3,0.6,6,1.8c5.9,3.9,6.5,13.3,1.5,20.9C166.9,28.3,161.6,31.5,156.5,31.5z M162.9,2.1
			c-4.6,0-9.4,2.9-12.6,7.6c-2.2,3.3-3.4,7.2-3.1,10.7c0.2,3.5,1.7,6.3,4.2,8c1.5,1,3.2,1.5,5.1,1.5c4.6,0,9.4-2.9,12.6-7.6
			c4.6-6.8,4.1-15.2-1-18.7C166.6,2.6,164.8,2.1,162.9,2.1z"/>
		<path class="st0" d="M163.5,22.5c-1,0-2.1-0.1-3.1-0.4c-2.5-0.7-4.7-2.1-6.1-4c-1.5-2-2-4.2-1.4-6.3c0.9-3.4,4.3-5.6,8.6-5.6
			c1,0,2.1,0.1,3.1,0.4c2.5,0.7,4.7,2.1,6.1,4c1.5,2,2,4.2,1.4,6.3C171.2,20.3,167.7,22.5,163.5,22.5z M161.4,7.7
			c-3.5,0-6.4,1.8-7.1,4.5c-0.4,1.6,0,3.4,1.1,5c1.2,1.6,3.1,2.9,5.3,3.4c0.9,0.2,1.8,0.4,2.7,0.4c3.5,0,6.4-1.8,7.1-4.5
			c0.4-1.6,0-3.4-1.1-5c-1.2-1.6-3.1-2.9-5.3-3.4C163.2,7.8,162.3,7.7,161.4,7.7z"/>
	</g>
</g>
</svg>
