<?xml version="1.0" encoding="utf-8"?>
<!-- Generator: Adobe Illustrator 22.1.0, SVG Export Plug-In . SVG Version: 6.00 Build 0)  -->
<svg version="1.1" id="Layer_1" xmlns="http://www.w3.org/2000/svg" xmlns:xlink="http://www.w3.org/1999/xlink" x="0px" y="0px"
	 viewBox="0 0 72 72" style="enable-background:new 0 0 72 72;" xml:space="preserve">
<style type="text/css">
	.st0{fill:#212121;}
	.st1{fill:#FFFFFF;}
</style>
<title>flogo_RGB_HEX-72</title>
<path class="st0" d="M68,0H4C1.8,0,0,1.8,0,4v64c0,2.2,1.8,4,4,4h34.5V44.2h-9.3V33.3h9.3v-8c0-9.3,5.7-14.4,14-14.4
	c2.8,0,5.6,0.1,8.4,0.4V21h-5.7c-4.5,0-5.4,2.1-5.4,5.3v6.9h10.8l-1.4,10.9h-9.4V72H68c2.2,0,4-1.8,4-4V4C72,1.8,70.2,0,68,0z"/>
<path id="f" class="st1" d="M49.7,72V44.2h9.4l1.4-10.9H49.7v-6.9c0-3.1,0.9-5.3,5.4-5.3h5.7v-9.7c-2.8-0.3-5.6-0.4-8.4-0.4
	c-8.3,0-14,5.1-14,14.4v8h-9.3v10.9h9.3V72H49.7z"/>
</svg>
