<?xml version="1.0" encoding="utf-8"?>
<!-- Generator: Adobe Illustrator 21.1.0, SVG Export Plug-In . SVG Version: 6.00 Build 0)  -->
<svg version="1.1" id="Layer_1" xmlns="http://www.w3.org/2000/svg" xmlns:xlink="http://www.w3.org/1999/xlink" x="0px" y="0px"
	 viewBox="0 0 31 20" style="enable-background:new 0 0 31 20;" xml:space="preserve">
<style type="text/css">
	.st0{fill:#0000FF;}
</style>
<g>
	<path class="st0" d="M19.3,10.2c0,1.9-0.4,3.6-1.2,5.1c-0.8,1.5-1.9,2.6-3.3,3.5c-1.4,0.8-3.1,1.2-5,1.2c-1.3,0-2.6-0.3-3.8-0.8
		S3.7,18,2.9,17.1c-0.9-0.9-1.6-2-2.1-3.2C0.3,12.7,0,11.4,0,10s0.3-2.7,0.8-3.9S2,3.8,2.9,2.9S4.8,1.3,6,0.8S8.5,0,9.9,0
		c2.6,0,4.8,0.9,6.6,2.6l-2.7,2.6c-1-1-2.4-1.5-3.9-1.5C8.8,3.7,7.7,4,6.8,4.5S5.1,5.9,4.6,6.8c-0.5,1-0.8,2-0.8,3.2
		s0.3,2.2,0.8,3.2s1.3,1.7,2.2,2.3s2,0.8,3.1,0.8c0.7,0,1.4-0.1,2.1-0.3c0.6-0.2,1.1-0.5,1.5-0.8s0.8-0.7,1.1-1.1
		c0.3-0.4,0.5-0.8,0.7-1.1c0.1-0.4,0.2-0.7,0.3-1H9.9V8.6h9.3C19.3,9.1,19.3,9.7,19.3,10.2z M31,8.6v2.9h-2.8v2.9h-2.8v-2.9h-2.8
		V8.6h2.8V5.7h2.8v2.9H31z"/>
</g>
</svg>
