<?xml version="1.0" encoding="utf-8"?>
<!-- Generator: Adobe Illustrator 21.1.0, SVG Export Plug-In . SVG Version: 6.00 Build 0)  -->
<svg version="1.1" id="Layer_1" xmlns="http://www.w3.org/2000/svg" xmlns:xlink="http://www.w3.org/1999/xlink" x="0px" y="0px"
	 viewBox="0 0 26 21" style="enable-background:new 0 0 26 21;" xml:space="preserve">
<style type="text/css">
	.st0{fill:#0000FF;}
</style>
<g>
	<path class="st0" d="M26,2.5c-0.7,1.1-1.6,2-2.7,2.7c0,0.2,0,0.4,0,0.7c0,1.4-0.2,2.8-0.6,4.3c-0.4,1.4-1.1,2.8-1.9,4.1
		c-0.9,1.3-1.9,2.5-3,3.5c-1.2,1-2.6,1.8-4.3,2.4s-3.4,0.9-5.3,0.9c-3,0-5.7-0.8-8.2-2.4c0.4,0,0.8,0.1,1.3,0.1
		c2.5,0,4.7-0.8,6.6-2.3c-1.2,0-2.2-0.4-3.1-1.1c-0.9-0.7-1.5-1.6-1.9-2.6c0.4,0.1,0.7,0.1,1,0.1c0.5,0,0.9-0.1,1.4-0.2
		c-1.2-0.3-2.3-0.9-3.1-1.8S1.1,8.7,1.1,7.4l0,0C1.8,7.8,2.6,8,3.5,8.1C2.7,7.6,2.2,6.9,1.7,6.2C1.3,5.4,1.1,4.6,1.1,3.6
		s0.2-1.9,0.7-2.7c1.3,1.6,3,2.9,4.9,3.9s4,1.5,6.1,1.6c-0.1-0.4-0.1-0.8-0.1-1.2c0-1.5,0.5-2.7,1.6-3.7S16.5,0,18,0
		s2.8,0.6,3.9,1.7c1.2-0.2,2.3-0.7,3.4-1.3c-0.4,1.3-1.2,2.2-2.3,2.9C24,3.2,25,2.9,26,2.5z"/>
</g>
</svg>
