<?xml version="1.0" encoding="utf-8"?>
<!-- Generator: Adobe Illustrator 22.1.0, SVG Export Plug-In . SVG Version: 6.00 Build 0)  -->
<svg version="1.1" id="Layer_1" xmlns="http://www.w3.org/2000/svg" xmlns:xlink="http://www.w3.org/1999/xlink" x="0px" y="0px"
	 viewBox="0 0 63 25" style="enable-background:new 0 0 63 25;" xml:space="preserve">
<style type="text/css">
	.st0{fill:#F7F0DA;}
	.st1{fill:#001E4D;}
</style>
<ellipse class="st0" cx="31.5" cy="11.6" rx="14.5" ry="10.7"/>
<ellipse class="st1" cx="31.5" cy="17.6" rx="31.5" ry="7.4"/>
<path class="st1" d="M31.5,1.8c3.8,0,7.4,1.1,10,3c2.5,1.8,3.9,4.2,3.9,6.8s-1.4,4.9-3.9,6.8c-2.6,2-6.2,3-10,3s-7.4-1.1-10-3
	c-2.5-1.8-3.9-4.2-3.9-6.8s1.4-4.9,3.9-6.8C24.2,2.9,27.7,1.8,31.5,1.8 M31.5,0c-8.7,0-15.7,5.2-15.7,11.6s7,11.6,15.7,11.6
	S47.2,18,47.2,11.6S40.2,0,31.5,0L31.5,0z"/>
</svg>
