<?xml version="1.0" encoding="utf-8"?>
<!-- Generator: Adobe Illustrator 22.1.0, SVG Export Plug-In . SVG Version: 6.00 Build 0)  -->
<svg version="1.1" id="Layer_1" xmlns="http://www.w3.org/2000/svg" xmlns:xlink="http://www.w3.org/1999/xlink" x="0px" y="0px"
	 viewBox="0 0 60.7 30.6" style="enable-background:new 0 0 60.7 30.6;" xml:space="preserve">
<style type="text/css">
	.st0{fill:#001E4D;}
</style>
<g>
	<g>
		<path class="st0" d="M59.6,20.2c-0.6,0.6-0.8,0.6-1.3-0.1c-0.6-0.9-1.4-1.6-2.5-1.8c-0.1,0-0.2-0.1-0.2-0.2
			c-0.1-0.6-0.6-0.6-1.1-0.7c-0.3,0-0.6,0.1-0.8-0.3c0-0.1-0.3-0.1-0.4,0c-1.4,0.5-2.8,0.1-4.1-0.4c-0.2-0.1-0.3-0.2-0.5-0.2
			c-0.8,0-1.4-0.4-2.2-0.6c-0.6-0.2-1.2-0.5-1.9-0.1c-0.1,0.1-0.2,0.1-0.3,0c-1.1-0.5-2.3-0.4-3.4-0.5c-1.4-0.2-2.7-0.3-4.1-0.3
			c-0.4,0-0.8,0.1-1.2,0.2c0.9,0.5,1.9,1,2.8,1.5c0.5,0.3,1,0.6,1.5,0.8c0.6,0.3,1.2,0.5,1.9,0.7c0.8,0.3,1.7,0.5,2.5,0.7
			c1.6,0.4,3.1,0.8,4.7,1.3c0.8,0.2,1.6,0.6,2.4,0.8c0.4,0.1,0.9,0,1.3-0.1c0.4-0.1,0.7,0,1,0.3c0.2,0.2,0.6,0.4,0.9,0.4
			c0.7,0.1,1.3,0.1,2,0.2c0.1,0,0.3,0.3,0.2,0.5c-0.1,0.9-0.3,1.7-0.5,2.6c-0.2,1-0.5,2.1-0.8,3.1c-0.2,0.7-0.5,1.4-0.8,2.1
			c-0.1,0.1-0.4,0.3-0.5,0.3c-0.2-0.2-0.5-0.4-0.6-0.6c-0.1-0.3-0.1-0.7-0.1-1c0-0.5,0-1,0-1.5c0.1-0.9-0.4-1.7-0.8-2.4
			c-0.2-0.3-0.5-0.5-0.7,0c-0.2,0.2-0.4,0.2-0.5,0c-0.3-0.3-0.6-0.4-1.1-0.5c-0.3,0-0.7-0.1-1-0.2c-1.3-0.7-2.8-0.7-4.2-0.9
			c-0.3,0-0.7-0.2-1-0.3c-0.2,0-0.3-0.1-0.5-0.1c-0.7-0.1-1.4-0.2-2.1,0c-0.4,0.1-0.9-0.2-1.3-0.3c-2.2-0.6-4.5-1.2-6.7-1.9
			c-1-0.3-2-0.7-2.9-1c-0.8-0.3-1.5-0.7-2.3-1c-0.1-0.1-0.4,0.1-0.6,0.3c-0.3,0.3-0.4,0.5-0.9,0.2c-0.7-0.5-1.5-0.7-2.2-1.1
			c-0.3-0.2-0.5-0.4-0.7-0.6c-1-0.8-1.9-1.7-3.1-2.1c-1.1-0.4-2.3-0.7-3.5-1.1c-0.9-0.3-1.7-0.6-2.5-0.9c-0.2,0.6-0.4,1.1-0.6,1.6
			c-0.3,0.9-0.6,1.8-1,2.6c-0.5,1.1-0.9,2.3-1.8,3.2c-0.3,0.3-0.7,0.6-1,1c-0.3,0.3-0.6,0.7-0.9,1.1C9.3,23,9,23.2,8.6,23.4
			c-0.2,0.1-0.4,0.3-0.5,0.4c-0.3,0.5-0.6,0.5-1.1,0.4c-0.3-0.1-0.5-0.1-0.8-0.1c-0.4,0.8-1.1,0.6-1.8,0.4c-0.5-0.1-1.1-0.3-1.6-0.6
			c-0.4-0.2-0.8-0.6-1.1-1c-0.4-0.5-0.8-1-1.5-1.2c-0.1,0-0.3-0.3-0.3-0.4c0.1-0.2,0.3-0.6,0.4-0.6C1,20.8,1.6,21,2.1,21.2
			c0.3,0.1,0.6,0.4,0.8,0.5c0.3-0.1,0.5-0.2,0.7-0.3c0,0.2,0.1,0.4,0.1,0.6c0,0,0.2,0.1,0.3,0.2c0.1-0.1,0.2-0.3,0.3-0.5
			C4.7,22,4.7,22.5,4.7,23c0.2-0.1,0.4-0.1,0.6-0.2c0.4-0.4,0.7-0.8,1-1.2c0.8-1,1.6-2.1,2.4-3.2C9,18,9.1,17.5,9.3,17
			c0.2-0.5,0.3-1.1,0.6-1.5c0.3-0.4,0.3-0.7,0.4-1.2c0.1-1,0.3-1.9,0.4-2.9c0-0.4,0-0.8,0-1.1c-0.1-0.8,0.4-1.5,0.7-2.2
			c0-0.1,0.1-0.2,0.1-0.2c-0.4-0.1-0.8-0.2-1.2-0.3C9.7,7.6,9.1,7.5,8.5,7.2C7.9,7,7.3,6.7,6.7,6.3C6.3,6.1,5.9,5.9,5.6,5.6
			c-0.5-0.4-0.6-1-0.7-1.6c0-0.3,0-0.6,0-0.9C5,2.7,5.1,2.4,5.2,2c0.4-0.4,0.9-0.9,1.3-1.3c0.1-0.1,0.1-0.2,0.2-0.2
			C6.8,0.4,7,0.4,7.2,0.4c0,0,0.1,0.1,0.1,0.1c1-0.1,2,0.1,2.8,0.8c0.5,0.5,1,1,1.4,1.6c0.5,0.5,1.1,0.6,1.6,0.2
			C13.2,3,13.3,3,13.4,3c0.4-0.2,0.8-0.3,1.1-0.6c0.9-0.6,1.7-1.3,2.6-1.9C17.5,0.2,18.2,0,18.8,0c0.7,0,1.5,0.3,2.2,0.5
			c0.5,0.1,1,0.3,1.5,0.4c1.3,0.2,2.7,0.4,4,0.6c2.1,0.3,3.6,1.6,5.3,2.7c0.8,0.6,1.6,1.1,2.4,1.7c0.5,0.3,1.2,0.6,1.7,0.9
			c-0.1,0.4-0.3,0.7-0.4,1.1c0.3,0.1,0.6,0.2,0.9,0.4c0.7,0.3,1.4,0.7,1.6,1.5c0.2,0.7,0.6,0.7,1.2,0.8c0.2,0,0.4,0.1,0.7,0.2
			c0.4,0.2,0.9,0.5,1.3,0.4c0.9-0.1,1.6,0.8,2.5,0.6c0.1,0,0.1,0.1,0.2,0.1c0.2,0.1,0.4,0.2,0.7,0.2c1.1,0.1,2.2,0.1,3.2,0.3
			c2.3,0.4,4.5,1,6.7,1.9c0.3,0.1,0.5,0.3,0.7,0.5c0.5,0.6,0.5,0.6,1.2,0.3c0.3-0.1,0.5-0.2,0.8,0c0.7,0.5,1.6,0.7,2.4,0.7
			c0.5,0,0.6,0.2,0.6,0.6c0,0.3,0.1,0.7,0.2,1L59.6,20.2z M32.4,8.5c0,0,0.1-0.1,0.1-0.1c-0.1-0.1-0.3-0.2-0.4-0.3
			c-0.4-0.2-0.8-0.4-1.2-0.6c-0.3-0.2-0.6-0.4-0.9-0.6c-0.4-0.2-0.7-0.4-1.1-0.6c-0.1-0.1-0.2-0.1-0.4-0.2c-1-0.3-2-0.5-3-0.8
			c-0.4-0.1-0.8-0.2-1.2-0.3c0.7,0.4,1.4,0.7,2.1,1c0.7,0.3,1.5,0.8,2.2,1c0.9,0.3,1.8,0.8,2.8,0.9C31.8,8.1,32.1,8.4,32.4,8.5z"/>
	</g>
</g>
</svg>
