<?xml version="1.0" encoding="utf-8"?>
<!-- Generator: Adobe Illustrator 22.1.0, SVG Export Plug-In . SVG Version: 6.00 Build 0)  -->
<svg version="1.1" id="Layer_1" xmlns="http://www.w3.org/2000/svg" xmlns:xlink="http://www.w3.org/1999/xlink" x="0px" y="0px"
	 viewBox="0 0 75.8 47.8" style="enable-background:new 0 0 75.8 47.8;" xml:space="preserve">
<style type="text/css">
	.st0{fill:#F9F4DC;}
</style>
<g>
	<path class="st0" d="M15.6,5.9l0.6-0.1l-0.6-0.1c-0.3,0-0.6-0.3-0.6-0.6l-0.1-0.6l-0.1,0.6c0,0.3-0.3,0.6-0.6,0.6l-0.6,0.1l0.6,0.1
		c0.3,0,0.6,0.3,0.6,0.6l0.1,0.6L15,6.5C14.9,6.2,15.2,6,15.6,5.9z"/>
	<path class="st0" d="M2,22.1L2.6,22H2c-0.3,0-0.6-0.3-0.6-0.6l-0.1-0.6l-0.1,0.6c0,0.3-0.3,0.6-0.6,0.6H0l0.6,0.1
		c0.3,0,0.6,0.3,0.6,0.6l0.1,0.6l0.1-0.6C1.4,22.4,1.7,22.1,2,22.1z"/>
	<path class="st0" d="M75.3,22.5l0.6-0.1l-0.6-0.1c-0.3,0-0.6-0.3-0.6-0.6l-0.1-0.6l-0.1,0.6c0,0.3-0.3,0.6-0.6,0.6l-0.6,0.1
		l0.6,0.1c0.3,0,0.6,0.3,0.6,0.6l0.1,0.6l0.1-0.6C74.7,22.8,75,22.5,75.3,22.5z"/>
	<path class="st0" d="M63.5,11.5l0.8-0.1l-0.8-0.1c-0.5-0.1-0.8-0.4-0.9-0.9l-0.1-0.8l-0.1,0.8c-0.1,0.5-0.4,0.8-0.9,0.9l-0.8,0.1
		l0.8,0.1c0.5,0.1,0.8,0.4,0.9,0.9l0.1,0.8l0.1-0.8C62.7,11.9,63.1,11.5,63.5,11.5z"/>
	<path class="st0" d="M19.2,12.1l0.6,0.5L19.3,12c-0.3-0.3-0.3-0.8,0-1.1l0.5-0.6l-0.6,0.5c-0.3,0.3-0.8,0.3-1.1,0l-0.6-0.5l0.5,0.6
		c0.3,0.3,0.3,0.8,0,1.1l-0.5,0.6l0.6-0.5C18.4,11.8,18.8,11.8,19.2,12.1z"/>
	<path class="st0" d="M10.3,15.9l0.4,0.3L10.3,15.9c-0.1-0.3-0.1-0.7,0.1-0.9l0.3-0.4l-0.4,0.3c-0.2,0.2-0.6,0.2-0.8,0L9,14.5
		l0.3,0.4c0.2,0.2,0.2,0.6,0,0.8L9,16.2l0.4-0.3C9.7,15.7,10.1,15.7,10.3,15.9z"/>
	<path class="st0" d="M56.9,17.6l0.4,0.3L56.9,17.6c-0.1-0.3-0.1-0.7,0.1-0.9l0.3-0.4l-0.4,0.3c-0.2,0.2-0.6,0.2-0.8,0l-0.4-0.3
		l0.3,0.4c0.2,0.2,0.2,0.6,0,0.8l-0.3,0.4l0.4-0.3C56.3,17.4,56.7,17.4,56.9,17.6z"/>
	<path class="st0" d="M49.6,24.3l0.4,0.3L49.6,24.3c-0.1-0.3-0.1-0.7,0.1-0.9L50,23l-0.4,0.3c-0.2,0.2-0.6,0.2-0.8,0L48.4,23
		l0.3,0.4c0.2,0.2,0.2,0.6,0,0.8l-0.3,0.4l0.4-0.3C49,24.1,49.3,24.1,49.6,24.3z"/>
	<path class="st0" d="M41.2,47.5l0.4,0.3L41.2,47.5c-0.1-0.3-0.1-0.7,0.1-0.9l0.3-0.4l-0.4,0.3c-0.2,0.2-0.6,0.2-0.8,0L40,46.2
		l0.3,0.4c0.2,0.2,0.2,0.6,0,0.8L40,47.8l0.4-0.3C40.6,47.3,40.9,47.3,41.2,47.5z"/>
	<path class="st0" d="M64.5,21.5c0.1-0.1,0.3-0.1,0.5-0.2l2.1-0.1L65,21.1c-0.2,0-0.3-0.1-0.5-0.2c0-0.2,0.1-0.3,0.2-0.5l0.6-0.7
		l-0.7,0.6c-0.1,0.1-0.3,0.2-0.5,0.2C64,20.4,64,20.2,64,20.1L63.9,18l-0.1,2.1c0,0.2-0.1,0.3-0.2,0.5c-0.2,0-0.3-0.1-0.5-0.2
		l-0.7-0.6l0.6,0.7c0.1,0.1,0.2,0.3,0.2,0.5c-0.1,0.1-0.3,0.1-0.5,0.2l-2.1,0.1l2.1,0.1c0.2,0,0.3,0.1,0.5,0.2
		c0,0.2-0.1,0.3-0.2,0.5l-0.6,0.7l0.7-0.6c0.1-0.1,0.3-0.2,0.5-0.2c0.1,0.1,0.1,0.3,0.2,0.5l0.1,2.1l0.1-2.1c0-0.2,0.1-0.3,0.2-0.5
		c0.2,0,0.3,0.1,0.5,0.2l0.7,0.6l-0.6-0.7C64.6,21.8,64.5,21.6,64.5,21.5z"/>
	<path class="st0" d="M37.8,2.8c0.2,0,0.3,0.1,0.4,0.2l1.5,1.4l-1.4-1.5c-0.1-0.1-0.2-0.3-0.2-0.4c0.1-0.1,0.3-0.1,0.5-0.2l0.9-0.1
		l-0.9-0.1c-0.2,0-0.3-0.1-0.5-0.2c0-0.2,0.1-0.3,0.2-0.4L39.7,0l-1.5,1.4c-0.1,0.1-0.3,0.2-0.4,0.2c-0.1-0.1-0.1-0.3-0.2-0.5
		l-0.1-0.9l-0.1,0.9c0,0.2-0.1,0.3-0.2,0.5c-0.2,0-0.3-0.1-0.4-0.2L35.3,0l1.4,1.5c0.1,0.1,0.2,0.3,0.2,0.4C36.8,2,36.6,2,36.4,2.1
		l-0.9,0.1l0.9,0.1c0.2,0,0.3,0.1,0.5,0.2c0,0.2-0.1,0.3-0.2,0.4l-1.4,1.5L36.8,3c0.1-0.1,0.3-0.2,0.4-0.2c0.1,0.1,0.1,0.3,0.2,0.5
		l0.1,0.9l0.1-0.9C37.6,3.1,37.7,3,37.8,2.8z"/>
</g>
</svg>
