<?xml version="1.0" encoding="utf-8"?>
<!-- Generator: Adobe Illustrator 22.1.0, SVG Export Plug-In . SVG Version: 6.00 Build 0)  -->
<svg version="1.1" id="Layer_1" xmlns="http://www.w3.org/2000/svg" xmlns:xlink="http://www.w3.org/1999/xlink" x="0px" y="0px"
	 viewBox="0 0 48 35" style="enable-background:new 0 0 48 35;" xml:space="preserve">
<style type="text/css">
	.st0{fill:#001E4D;}
</style>
<g id="_x32_7JbvL.tif">
	<g>
		<g>
			<path class="st0" d="M48.1,4.7c-0.3,0.6-0.7,1.1-0.7,1.8c0,0.6-0.5,0.8-1,0.7c-0.2,0-0.4-0.1-0.6-0.2c-0.3,0.6-0.2,1.2,0.1,1.8
				c0.4,0.6,0.7,1.3,1.1,1.9c0.3,0.6,0.3,1.2,0.3,1.8c0,0.1-0.1,0.2-0.1,0.2c-0.7,0.4-1.3,0.9-2.1,0.8c-0.5,0-1,0.1-1.5,0.1
				c-0.8,0.1-1.7,0-2.5-0.1c-0.7-0.1-1.2,0.1-1.7,0.5C38.6,15,37.6,15.8,37,17c-0.4,0.8-0.7,1.6-1,2.3c-0.3,0.7-0.7,1.3-1.4,1.6
				c-0.1,0-0.1,0.1-0.2,0.1c-0.4,0.7-1.1,1-1.7,1.4c-0.8,0.5-1.3,1.2-1.5,2.1c-0.4,1.7-0.9,3.4-1.2,5.1c-0.2,0.9-0.1,1.8,0,2.7
				c0,0.5,0.5,0.7,0.8,0.8c0.5,0.2,0.6,0.6,0.7,1c0.1,0.3-0.2,0.5-0.4,0.5c-0.4,0.1-0.8,0.1-1.1,0.1c-0.7,0-1.4-0.2-2.1-0.2
				c-0.4,0-0.8,0-1.1,0c-0.5,0-1.1,0-1.6,0c-0.5,0-0.6-0.2-0.6-0.7c0-0.3,0-0.7,0.1-1c0-0.1,0-0.2,0.1-0.2c0.8-0.8,0.8-1.8,0.6-2.8
				c-0.1-0.5-0.3-1-0.5-1.4c-0.5-1.1-0.6-2.3-0.8-3.5c-0.2-0.9-0.3-1.8-0.4-2.8c-0.1-1-0.6-1.4-1.6-1.4c-1.4,0.1-2.9,0.2-4.3,0.2
				c-1.6,0-3.2-0.2-4.7-0.8c-0.6-0.2-1.1-0.7-1.6-1.1c-0.8-0.7-1.1-0.6-1.4,0.4c-0.3,1-0.6,2-1,3c-0.3,0.7-0.6,1.3-1,1.9
				c-0.5,0.8-0.7,1.7-0.7,2.7c0.1,1.9,0.4,3.8,0.9,5.7c0,0.1,0.2,0.3,0.3,0.4c0.4,0.4,0.8,0.8,1.2,1.2c0.2,0.3,0.1,0.5-0.3,0.5
				c-1.2,0-2.4,0-3.6,0c-0.3,0-0.5-0.2-0.5-0.5c0-1.2-0.3-2.3-0.6-3.4c-0.4-1.5-1-2.9-1.4-4.4c0-0.1-0.1-0.2-0.1-0.3
				c0,0-0.1,0-0.1,0c-0.1,0.2-0.2,0.4-0.2,0.7c0,0,0,0-0.1,0c-0.1-0.3-0.1-0.5-0.2-0.8c-0.1,0-0.2,0.1-0.3,0.2
				c-0.1-0.7-0.2-1.3-0.3-2c-0.1,0-0.2,0.1-0.4,0.1c0.1-0.3,0.1-0.5,0.2-0.7c0.2-0.4,0.1-0.7-0.2-1c-0.3-0.3-0.3-0.7-0.8-0.9
				c0.1-0.8,0.2-1.7,0.4-2.5c0.3-1.9,0-3.8-0.3-5.7c-0.3-1.6-0.7-3.3-0.8-5c-0.1-1.5-0.1-3,0.5-4.5c0.1-0.3,0.2-0.7,0.3-1
				c0-0.1,0.1-0.3,0.2-0.3C1.4,2.5,1.5,2.3,1.6,2c0.1-0.3,0.2-0.4,0.6-0.4c0.5,0.1,0.9-0.2,1.3-0.5C3.9,1,4.2,0.7,4.6,0.6
				c0.5-0.1,1-0.2,1.4-0.4C6.7,0,7.3-0.1,8,0.1c0,0,0.1,0,0.1,0c0.6-0.2,0.9,0.2,1.4,0.4c0.5,0.2,1.1,0.4,1.6,0.5
				c2.5,0.3,5,0.8,7.5,1.4c0.7,0.2,1.4,0.2,2.1,0c0.6-0.2,1.1-0.1,1.7,0c0.7,0.1,1.5,0.1,2.2,0.2c1.5,0.2,3,0.3,4.4,0.3
				c0.3,0,0.6,0.1,0.8,0.2c1.4,0.8,2.8,0.6,4.3,0.2C34.6,3.2,35,3.1,35.4,3c0.5-0.1,0.9-0.2,1.4-0.3c0.5-0.2,0.9-0.4,1.4-0.2
				c0.2,0.1,0.5-0.1,0.8-0.2c0.2-0.1,0.5-0.2,0.7-0.4C39.8,1.9,40,1.7,40,1.5c0-0.2,0.1-0.3,0.3-0.4c0.5-0.1,1-0.3,1.5-0.4
				c0.1,0,0.1,0,0.2,0C42,0.8,41.9,0.9,41.8,1c0,0,0.1,0.1,0.1,0.1c0.6,0.2,1.1,0.4,1.7,0.6c0.2,0.1,0.3,0.1,0.3,0.3
				c0,0.2,0.2,0.4,0.3,0.5c0.2,0.2,0.5,0.4,0.7,0.7c0.1,0.2,0.2,0.3,0.5,0.2c0.2,0,0.4,0,0.6-0.1c0.8-0.1,1.5,0.1,2,0.8
				C48.1,4.4,48.1,4.6,48.1,4.7z M27.6,29c-0.6,0.8-0.4,3,0.1,3.9C28.1,31.5,27.8,30.2,27.6,29z"/>
		</g>
	</g>
</g>
</svg>
