<?xml version="1.0" encoding="utf-8"?>
<!-- Generator: Adobe Illustrator 22.1.0, SVG Export Plug-In . SVG Version: 6.00 Build 0)  -->
<svg version="1.1" id="Layer_1" xmlns="http://www.w3.org/2000/svg" xmlns:xlink="http://www.w3.org/1999/xlink" x="0px" y="0px"
	 viewBox="0 0 44.8 30.6" style="enable-background:new 0 0 44.8 30.6;" xml:space="preserve">
<style type="text/css">
	.st0{fill:#001E4D;}
</style>
<g>
	<g>
		<path class="st0" d="M16.2,11.2c0.7,0.9,1.2,1.8,1.8,2.8c0.3,0.4,0.7,0.6,1.2,0.4c1.1-0.4,2.1-0.8,3.2-1.2c1-0.4,2-0.3,3.2,0.4
			c-0.9,0.1-1.6,0.1-2.3,0.2c1.2,0.1,2.1,0.4,3,1.2c0.5,0.5,1.6,0.1,1.9-0.7c0.6-1.4,1.2-2.8,1.8-4.2c0.1-0.2,0.2-0.5,0.5-0.7
			c-0.1,0.4-0.4,0.9-0.5,1.4c-0.6,1.4-1.2,2.7-1.7,4.1c-0.2,0.7-0.7,0.7-1.2,0.7c-0.7-0.1-1.3-0.1-2-0.1c2,1.2,3.1,3.3,5.3,4.1
			c-0.1,0.1-0.1,0.2-0.1,0.3c1.2-0.1,2.5-0.4,3.7-0.4c0.6,0,1.3,0.5,1.6,1c0.4,0.7-0.1,1.6-0.7,2c-1,0.7-2.2,1.2-3.3,1.7
			c-0.5,0.2-0.9,0.1-1.4-0.5c-0.3-0.4-0.9-0.7-1.4-0.7c-0.7,0-1.2-0.1-1.7-0.5c-0.6-0.4-1.3-0.8-2-1.2c-0.1-0.1-0.2-0.1-0.4-0.1
			c-0.4-0.1-0.7-0.1-1.1-0.1c-2.3,1.5-4.5,2.9-6.8,4.4c-1.3,0.8-3.3,0.1-4.4-0.8c-0.2-0.4-0.4-0.4-0.7-0.6c-0.1-0.1-0.4-0.2-0.4-0.4
			c-0.6-2.7-1.4-5.3-1.6-8c-0.2-1.8,0.2-3.8,2-4.9c0.2-0.1,0.3-0.3,0.5-0.4c1.2-0.8,1.5-1.7,0.9-3.1c-0.7-1.7,1.1-3.6,3-3.3
			c2,0.4,2.5,1,2.7,3c0,0.1,0,0.3,0,0.4c0.7,0.7,0.1,1.3-0.2,2c-0.4,0.7-0.7,1.2-1.6,1.4C16.8,10.8,16.6,11,16.2,11.2z"/>
	</g>
</g>
</svg>
