<?xml version="1.0" encoding="utf-8"?>
<!-- Generator: Adobe Illustrator 22.1.0, SVG Export Plug-In . SVG Version: 6.00 Build 0)  -->
<svg version="1.1" id="Layer_1" xmlns="http://www.w3.org/2000/svg" xmlns:xlink="http://www.w3.org/1999/xlink" x="0px" y="0px"
	 viewBox="0 0 44.8 67.6" style="enable-background:new 0 0 44.8 67.6;" xml:space="preserve">
<style type="text/css">
	.st0{fill:#001E4D;}
</style>
<g>
	<g>
		<path class="st0" d="M44.1,40.3c-0.3,1.4-1.3,2-2.4,2.4c-0.9,0.3-2,0.5-2.9,0.6c-2.2,0.1-2.9-0.5-3.8-2.6
			c-0.7-1.7-1.4-3.2-2.5-4.7c-0.9-1.2-1.1-3.1-1.4-4.7c-0.3-1.5-0.4-3-0.8-4.4c-0.2-0.8-0.7-1.6-1.1-2.3c0,1.9,0,3.7,0,5.6
			c0,0.8,0,1.6,0.3,2.3c1.1,2.2,1.2,4.5,1.1,6.9c0,0.9,0,1.8,0,2.7c0,2.1,0.4,4.1,1.8,5.8c1.8,2.3,2.4,4.9,2.1,7.7c-0.1,1-0.2,2,0,3
			c0.3,1.3,0.7,2.6,1.2,3.8c0.2,0.5,0.6,0.9,0.9,1.4c0.6,1.2,0.3,1.7-0.9,2c-2.8,0.6-5.7,0.4-8.5-0.1c-1-0.2-1.3-0.8-1-1.5
			c1.1-2.4,0.1-4.4-0.7-6.7c-0.8-2.2-0.9-4.8-1.3-7.2c-0.2-1.7-0.8-3.3-1.8-4.7c-0.5-0.7-0.8-1.5-1.2-2.2c-1.3,1.8-2.7,3.6-4,5.5
			c-0.3,0.4-0.2,1.1-0.3,1.6c-0.1,1.6,0,3.3-0.2,4.9c-0.3,2.3-1.2,4.6-0.6,7c0.1,0.6,0.4,1.2,0.6,1.8c0.4,1.1,0,1.8-1,2.2
			c-0.3,0.1-0.6,0.2-0.8,0.2c-3.6,0-7.3,0-11,0c-0.3-0.7,0-1.5,0.8-2.2c0.2-0.2,0.4-0.4,0.6-0.5c3.2-1.1,3.2-3.7,3-6.5
			c-0.2-2.4-0.3-4.8-0.6-7.2C7,47.3,8.2,44.6,9.7,42c0.9-1.5,1.9-2.9,2.7-4.5c0.3-0.5,0.3-1.3,0.2-1.9c-0.2-1.1-0.6-2.2-1-3.6
			c-1.2,4-4.2,7-4.4,11.2c0,0.7-0.7,1.4-1,2.2c-0.2,0-0.3,0-0.5-0.1c-0.2-0.6-0.4-1.1-0.6-1.7c-0.1,0-0.2,0-0.3,0
			c-0.1,1.3-0.2,2.6-0.3,4c-2.3,0.5-4.2-1.1-4.5-4c-0.2-2.3,0-4.5,1-6.6c0.6-1.3,0.6-2.8,1-4.2c0.3-1.1,0.5-2.4,1.2-3.3
			c1.5-2.1,1.8-4.3,1.5-6.8c-0.3-2.1-0.5-4.2,0.6-6.2c0.2-0.4,0.1-0.9,0.1-1.4c0.2-1.9,1.2-3.3,2.9-4.1c0.7-0.3,1.5-0.7,2.2-0.9
			c1.8-0.3,2.7-1.4,3.3-3c0.6-1.5,1.1-3,1.8-4.4c0.7-1.5,2-2.4,3.6-2.7c1.3-0.2,2.4,0.2,3,1.4c0.7,1.3,1.2,2.6,1.7,4
			c0.8,2.5,2.2,4,4.9,4.2c1.2,0.1,2.3,1,3.5,1.6c0.2,0.1,0.6,0.4,0.6,0.6c0.4,2.8,3.1,4.8,2.9,7.9c-0.1,1.7,0.6,3.2,2,4.4
			c2.5,2.1,2.5,5.1,2.6,8c0,0.3,0,0.7-0.1,1c-0.2,1.2-0.1,2.3,0.7,3.3c0.4,0.5,0.6,1.4,0.7,2.1c0.2,1,0.4,1.6,1.5,1.5
			C43.6,40.1,43.8,40.2,44.1,40.3z"/>
	</g>
</g>
</svg>
